<svg xmlns="http://www.w3.org/2000/svg" width="182" height="113" viewBox="0 0 182 113">
    <defs>
        <linearGradient id="a" x1="11.364%" x2="90.003%" y1="0%" y2="105.251%">
            <stop offset="0%" stop-color="#3C3C3C"/>
            <stop offset="100%" stop-color="#2D2D2D"/>
        </linearGradient>
    </defs>
    <g fill="none" fill-rule="evenodd">
        <path fill="url(#a)" d="M4.8 0h172.4a4.8 4.8 0 0 1 4.8 4.8v103.4a4.8 4.8 0 0 1-4.8 4.8H4.8a4.8 4.8 0 0 1-4.8-4.8V4.8A4.8 4.8 0 0 1 4.8 0z"/>
        <g fill-rule="nonzero">
            <path fill="#F90" d="M79.095 68.102c-4.97 3.649-12.173 5.595-18.375 5.595-8.696 0-16.525-3.203-22.448-8.532-.465-.42-.048-.99.51-.664 6.392 3.705 14.295 5.933 22.459 5.933 5.506 0 11.563-1.134 17.132-3.49.841-.355 1.545.55.722 1.158"/>
            <path fill="#F90" d="M81.161 65.747c-.633-.808-4.199-.382-5.8-.193-.487.06-.562-.363-.123-.667 2.84-1.992 7.502-1.417 8.045-.75.544.672-.141 5.326-2.81 7.547-.41.341-.8.16-.618-.293.599-1.49 1.943-4.832 1.306-5.644"/>
            <path fill="#FFF" d="M75.473 50.829v-1.936c0-.293.223-.49.491-.49h8.7c.28 0 .503.201.503.49v1.658c-.004.278-.238.641-.655 1.216l-4.509 6.412c1.676-.041 3.444.207 4.963 1.06.342.193.435.475.461.753v2.065c0 .282-.312.612-.64.442-2.677-1.398-6.232-1.55-9.191.014-.302.164-.618-.163-.618-.444v-1.962c0-.315.004-.853.32-1.331l5.223-7.461h-4.546c-.279 0-.502-.197-.502-.486M43.737 62.907H41.09a.5.5 0 0 1-.473-.45v-13.53c0-.271.227-.486.51-.486h2.468a.498.498 0 0 1 .48.452v1.769h.05c.643-1.71 1.853-2.507 3.484-2.507 1.656 0 2.691.798 3.436 2.507.64-1.71 2.095-2.507 3.655-2.507 1.11 0 2.323.456 3.064 1.48.838 1.138.666 2.792.666 4.242l-.003 8.54c0 .27-.227.49-.51.49h-2.643a.502.502 0 0 1-.477-.49v-7.172c0-.57.052-1.995-.074-2.536-.198-.909-.79-1.164-1.557-1.164-.64 0-1.31.426-1.582 1.108-.271.683-.245 1.825-.245 2.592v7.172c0 .27-.227.49-.51.49h-2.643a.5.5 0 0 1-.477-.49l-.004-7.172c0-1.509.25-3.73-1.63-3.73-1.903 0-1.828 2.166-1.828 3.73v7.172c0 .27-.227.49-.51.49M92.657 48.155c3.927 0 6.053 3.36 6.053 7.632 0 4.127-2.349 7.401-6.053 7.401-3.857 0-5.956-3.36-5.956-7.546 0-4.212 2.125-7.487 5.956-7.487m.022 2.763c-1.95 0-2.073 2.648-2.073 4.298 0 1.654-.026 5.184 2.05 5.184 2.052 0 2.149-2.848 2.149-4.584 0-1.142-.048-2.506-.395-3.59-.298-.941-.89-1.308-1.73-1.308M103.803 62.907h-2.636a.502.502 0 0 1-.477-.49l-.003-13.535a.5.5 0 0 1 .51-.441h2.453c.23.01.42.167.473.378v2.07h.048c.741-1.851 1.78-2.734 3.608-2.734 1.187 0 2.345.427 3.09 1.595.692 1.083.692 2.903.692 4.212v8.518a.508.508 0 0 1-.51.427h-2.655a.5.5 0 0 1-.469-.427v-7.35c0-1.48.172-3.645-1.656-3.645-.644 0-1.236.43-1.53 1.083-.372.827-.42 1.65-.42 2.562v7.287a.508.508 0 0 1-.518.49M113.217 61.831c0-.682.585-1.23 1.303-1.23.719 0 1.303.548 1.303 1.23 0 .679-.584 1.235-1.303 1.235-.718 0-1.303-.556-1.303-1.235M141.26 62.91a.497.497 0 0 1-.49-.49V48.89a.49.49 0 0 1 .472-.445h.971c.269 0 .484.192.507.445v1.972c.692-1.565 1.98-2.788 3.607-2.788h.197c1.728 0 2.99 1.268 3.459 3.11.733-1.82 2.11-3.11 3.927-3.11h.201c1.285 0 2.52.823 3.16 2.076.619 1.198.596 2.793.596 4.131l-.003 8.14a.496.496 0 0 1-.473.49h-1.162a.507.507 0 0 1-.49-.423V54.28c0-.968.047-1.995-.347-2.877-.402-.901-1.173-1.465-2-1.506-.922.045-1.771.716-2.322 1.62-.715 1.169-.689 2.222-.689 3.586v7.391a.508.508 0 0 1-.473.415h-1.154a.5.5 0 0 1-.495-.49l-.007-8.68c0-.797-.049-1.736-.417-2.451-.428-.816-1.195-1.35-2-1.39-.833.047-1.675.681-2.173 1.42-.644.941-.767 2.106-.767 3.303v7.799c0 .26-.212.47-.477.49h-1.158M133.286 63.192c-3.756 0-5.438-3.816-5.438-7.631 0-4.013 1.976-7.487 5.759-7.487h.201c3.678 0 5.51 3.7 5.51 7.516 0 4.042-2.03 7.602-5.834 7.602h-.197m.275-1.85c1.236-.041 2.211-.805 2.788-2.077.518-1.142.618-2.451.618-3.704 0-1.365-.149-2.789-.793-3.957-.577-1.02-1.567-1.669-2.617-1.706-1.169.04-2.215.83-2.74 2.047-.472 1.053-.618 2.451-.618 3.616 0 1.309.172 2.822.715 3.96.529 1.08 1.545 1.78 2.647 1.82M121.549 61.282c1.686-.052 2.572-1.398 2.937-3.14.074-.22.242-.386.488-.386l1.113-.004c.264.011.506.212.484.456-.514 2.97-2.312 4.984-4.873 4.984h-.201c-3.73 0-5.339-3.73-5.339-7.516 0-3.757 1.63-7.602 5.361-7.602h.201c2.591 0 4.437 1.987 4.84 4.958 0 .222-.209.415-.455.44l-1.165-.014c-.246-.033-.406-.241-.443-.475-.28-1.657-1.236-2.977-2.83-3.03-2.534.082-3.256 3.19-3.256 5.582 0 2.302.603 5.666 3.138 5.747M71.207 62.87a.554.554 0 0 1-.626.063c-.878-.727-1.038-1.065-1.519-1.758-1.451 1.476-2.483 1.917-4.363 1.917-2.23 0-3.96-1.368-3.96-4.109 0-2.14 1.161-3.597 2.821-4.309 1.437-.63 3.444-.741 4.978-.916v-.34c0-.627.048-1.37-.324-1.91-.32-.486-.938-.687-1.486-.687-1.009 0-1.906.516-2.125 1.584-.045.237-.22.47-.462.482l-2.565-.274c-.216-.049-.458-.223-.395-.553.589-3.1 3.403-4.034 5.92-4.034 1.288 0 2.97.34 3.987 1.312 1.288 1.198 1.165 2.796 1.165 4.535v4.11c0 1.234.514 1.775.997 2.443.168.237.205.523-.01.7-.54.45-1.501 1.284-2.03 1.75l-.003-.007zm-2.67-6.427v-.57c-1.917 0-3.938.407-3.938 2.654 0 1.139.596 1.91 1.612 1.91.74 0 1.41-.456 1.831-1.198.522-.912.496-1.769.496-2.796zM36.507 62.87a.554.554 0 0 1-.625.063c-.879-.727-1.035-1.065-1.519-1.758-1.452 1.476-2.48 1.917-4.363 1.917-2.226 0-3.96-1.368-3.96-4.109 0-2.14 1.164-3.597 2.821-4.309 1.437-.63 3.443-.741 4.977-.916v-.34c0-.627.049-1.37-.32-1.91-.324-.486-.942-.687-1.485-.687-1.01 0-1.91.516-2.13 1.584-.044.237-.22.47-.458.482l-2.568-.274c-.216-.049-.454-.223-.395-.553.592-3.1 3.403-4.034 5.92-4.034 1.287 0 2.97.34 3.986 1.312 1.288 1.198 1.165 2.796 1.165 4.535v4.11c0 1.234.514 1.775.998 2.443.171.237.209.523-.007.7-.54.45-1.5 1.284-2.03 1.75l-.007-.007zm-2.669-6.427v-.57c-1.913 0-3.935.407-3.935 2.654 0 1.139.592 1.91 1.609 1.91.744 0 1.41-.456 1.831-1.198.521-.912.495-1.769.495-2.796z"/>
        </g>
    </g>
</svg>
