<svg xmlns="http://www.w3.org/2000/svg" xmlns:xlink="http://www.w3.org/1999/xlink" width="152" height="94" viewBox="0 0 152 94">
    <defs>
        <linearGradient id="a" x1="11.364%" x2="90.003%" y1="0%" y2="105.251%">
            <stop offset="0%" stop-color="#FCFCFC"/>
            <stop offset="100%" stop-color="#F8F8F8"/>
        </linearGradient>
        <path id="b" d="M4 0h144a4 4 0 0 1 4 4v86a4 4 0 0 1-4 4H4a4 4 0 0 1-4-4V4a4 4 0 0 1 4-4z"/>
    </defs>
    <g fill="none" fill-rule="evenodd">
        <g>
            <use fill="url(#a)" xlink:href="#b"/>
            <path stroke="#DFDFDF" d="M4 .5A3.5 3.5 0 0 0 .5 4v86A3.5 3.5 0 0 0 4 93.5h144a3.5 3.5 0 0 0 3.5-3.5V4A3.5 3.5 0 0 0 148 .5H4z"/>
        </g>
        <g fill-rule="nonzero">
            <path fill="#E53238" d="M43.373 36.951c-6.192 0-11.356 2.674-11.356 10.748 0 6.396 3.465 10.433 11.51 10.433 9.47 0 10.07-6.361 10.07-6.361h-4.58s-.978 3.425-5.764 3.425c-3.894 0-6.707-2.674-6.707-6.448h17.548v-2.36c0-3.705-2.315-9.437-10.72-9.437zm-.154 3.024c3.705 0 6.244 2.307 6.244 5.784H36.666c-.017-3.687 3.293-5.784 6.553-5.784z"/>
            <path fill="#0064D2" d="M54.094 29.14v24.955c0 1.416-.103 3.408-.103 3.408h4.375s.154-1.433.154-2.726c0 0 2.161 3.442 8.045 3.442 6.193 0 10.396-4.386 10.396-10.66 0-5.837-3.86-10.538-10.396-10.538-6.107 0-8.01 3.356-8.01 3.356V29.14h-4.46zM65.45 40.097c4.203 0 6.879 3.18 6.879 7.445 0 4.578-3.088 7.567-6.844 7.567-4.495 0-6.913-3.565-6.913-7.532 0-3.67 2.16-7.48 6.878-7.48z"/>
            <path fill="#F5AF02" d="M87.836 36.951c-9.314 0-9.915 5.19-9.915 6.03h4.632s.24-3.041 4.957-3.041c3.07 0 5.438 1.433 5.438 4.177v.978H87.51c-7.222 0-11.03 2.15-11.03 6.519 0 4.299 3.534 6.64 8.286 6.64 6.501 0 8.594-3.652 8.594-3.652 0 1.45.103 2.883.103 2.883h4.117s-.155-1.782-.155-2.918v-9.821c.017-6.431-5.094-7.795-9.589-7.795zm5.13 11.08v1.31c0 1.696-1.03 5.925-7.085 5.925-3.328 0-4.752-1.695-4.752-3.652 0-3.548 4.786-3.583 11.836-3.583z"/>
            <path fill="#86B817" d="M94.938 37.773h5.215l7.496 15.291 7.48-15.291h4.734l-13.603 27.21h-4.958l3.928-7.585z"/>
        </g>
    </g>
</svg>
