<svg width="182" height="115" viewBox="0 0 182 115" fill="none" xmlns="http://www.w3.org/2000/svg">
<path fill-rule="evenodd" clip-rule="evenodd" d="M0 12.8003C0 8.31985 0 6.07964 0.871948 4.36834C1.63893 2.86305 2.86278 1.6392 4.36808 0.872215C6.07937 0.00026705 8.31958 0.00026705 12.8 0.00026705H169.2C173.68 0.00026705 175.921 0.00026705 177.632 0.872215C179.137 1.6392 180.361 2.86305 181.128 4.36834C182 6.07964 182 8.31985 182 12.8003V102.2C182 106.68 182 108.921 181.128 110.632C180.361 112.137 179.137 113.361 177.632 114.128C175.921 115 173.68 115 169.2 115H12.8C8.31958 115 6.07937 115 4.36808 114.128C2.86278 113.361 1.63893 112.137 0.871948 110.632C0 108.921 0 106.68 0 102.2L0 12.8003Z" fill="url(#paint0_linear)"/>
<path d="M58.2038 71.9878C55.7177 71.8882 53.6837 71.2019 52.0933 69.9272C51.7897 69.6837 51.0665 68.9536 50.8238 68.6457C50.1789 67.8275 49.7404 67.0313 49.448 66.1479C48.548 63.4285 49.0112 59.86 50.7727 55.9436C52.281 52.5908 54.6083 49.2654 58.6686 44.6597C59.2668 43.982 61.0479 42 61.0594 42C61.0636 42 60.9666 42.1696 60.8444 42.3762C59.7887 44.1602 58.8853 46.2616 58.3932 48.0809C57.6027 51 57.698 53.5051 58.6725 55.4476C59.3447 56.7858 60.497 57.945 61.7929 58.5857C64.0614 59.7071 67.3827 59.7999 71.4388 58.8572C71.7181 58.7919 85.5559 55.086 102.19 50.6216C118.824 46.1569 132.435 42.5068 132.438 42.5098C132.442 42.5137 93.7924 59.1986 73.7287 67.8546C70.5512 69.225 69.7015 69.5712 68.2077 70.1003C64.3892 71.4531 60.9687 72.0986 58.2038 71.9878Z" fill="white"/>
<defs>
<linearGradient id="paint0_linear" x1="-75.0965" y1="45.2177" x2="-2.28233" y2="199.45" gradientUnits="userSpaceOnUse">
<stop stop-color="#FF8F45"/>
<stop offset="1" stop-color="#FF6600"/>
</linearGradient>
</defs>
</svg>
