
<svg xmlns="http://www.w3.org/2000/svg" width="152" height="94" viewBox="0 0 152 94">
    <defs>
        <linearGradient id="a" x1="11.364%" x2="90.003%" y1="0%" y2="105.251%">
            <stop offset="0%" stop-color="#949392"/>
            <stop offset="100%" stop-color="#777574"/>
        </linearGradient>
    </defs>
    <g fill="none" fill-rule="evenodd">
        <path fill="url(#a)" d="M4 0h144a4 4 0 0 1 4 4v86a4 4 0 0 1-4 4H4a4 4 0 0 1-4-4V4a4 4 0 0 1 4-4z"/>
        <g fill="#FFF" fill-rule="nonzero">
            <path d="M25.13 52.987c.175-.043.328-.087.502-.087.153 0 .327.044.501.087a235.672 235.672 0 0 1-.109-6.822c0-.74.022-1.503.022-2.244l3.466 4.38c1.503 1.896 2.746 3.531 3.661 4.904h.196a215.75 215.75 0 0 1-.043-3.901c0-2.441.043-5.122.13-8.064a1.628 1.628 0 0 1-.435.065c-.153 0-.306-.043-.458-.065.065 1.547.109 3.988.109 7.301 0 .436-.022.937-.044 1.526-2.114-2.572-4.49-5.514-7.04-9.045h-.283v1.809a217.38 217.38 0 0 1-.174 10.156zM42.283 53.227c-3.269 0-5.274-2.354-5.296-6.08 0-3.706 2.092-6.103 5.296-6.103 3.27 0 5.275 2.375 5.275 6.102 0 3.618-2.093 6.08-5.275 6.08zm0-.654c2.463 0 3.858-1.918 3.858-5.449 0-3.552-1.351-5.448-3.858-5.448-2.44 0-3.857 1.983-3.857 5.514 0 3.465 1.373 5.383 3.857 5.383zM62.008 52.987c.065-1.83.065-3.814.087-5.884 0-2.158 0-4.12-.066-5.863.306.022.676.043 1.068.043.676 0 1.613-.087 2.768-.087 1.352 0 2.354.153 3.204.828 1.177.96 1.831 2.616 1.831 4.752 0 4.032-1.918 6.255-5.645 6.255-.676 0-1.373-.087-2.092-.087-.196 0-.567.021-1.155.043zm1.286-.74c.544.043 1.046.086 1.482.086 3.16 0 4.707-1.721 4.707-5.252 0-3.705-1.198-5.21-4.054-5.21-.61 0-1.35 0-2.157.088-.022 1.613-.044 3.16-.044 4.708 0 1.896.022 3.77.066 5.58zM74.235 52.29c.632.61 1.46.893 2.397.893 2.07 0 3.4-1.504 3.4-3.705 0-1.504-.588-2.332-1.896-2.986l-1.155-.61c-1.003-.523-1.46-1.09-1.46-2.092 0-1.308.653-2.136 1.721-2.136.807 0 1.482.436 1.984 1.33.13-.48.24-.938.392-1.33-.697-.414-1.395-.632-2.18-.632-1.809 0-3.029 1.395-3.029 3.334 0 1.395.61 2.245 1.918 2.877l1.155.589c1.003.501 1.46 1.046 1.46 2.157 0 1.57-.828 2.529-2.048 2.529-1.047 0-1.94-.741-2.376-2.049a8.045 8.045 0 0 1-.283 1.83zM85.48 52.987c.24-.043.458-.043.676-.043.24 0 .436 0 .654.043-.065-3.16-.065-5.514-.065-7.083 0-1.439.022-2.703.065-3.858h.414c.981 0 1.831.066 2.55.218-.043-.174-.043-.349-.043-.523 0-.174.022-.349.043-.501-1.33.043-2.593.065-3.814.065-1.198 0-2.332-.022-3.422-.065.022.174.044.348.044.545 0 .152-.022.327-.044.48.61-.153 1.504-.219 2.638-.219h.392v2.877c-.022 2.528-.044 5.23-.087 8.064zM51.503 52.987c.24-.043.457-.087.675-.087.24 0 .436.044.676.087-.044-.959-.087-1.809-.087-2.593V43.68c0-.523.021-1.112.087-1.744.458-.043.85-.043 1.111-.043 1.657 0 2.463.762 2.463 2.332 0 1.7-1.068 2.528-3.182 2.528h-.13l2.07 3.27a90.268 90.268 0 0 1 1.787 2.985c.262-.044.545-.087.828-.087.284 0 .567.043.85.087-1.46-2.158-2.768-4.076-3.836-5.797 1.875-.415 2.877-1.591 2.877-3.183 0-1.874-1.09-2.79-3.225-2.79-.916 0-1.679.066-2.289.066-.152 0-.392-.022-.654-.043.066 1.525.11 3.487.11 5.862-.022 2.223-.022 4.163-.131 5.863zM93.109 52.987c.218-.043.458-.087.676-.087.24 0 .436.044.653.087a57.123 57.123 0 0 1-.065-2.593V43.68c0-.523.022-1.112.087-1.744.48-.043.85-.043 1.134-.043 1.634 0 2.462.762 2.462 2.332 0 1.7-1.068 2.528-3.203 2.528h-.131l2.07 3.27a90.268 90.268 0 0 1 1.787 2.985c.284-.044.545-.087.829-.087.283 0 .566.043.85.087-1.46-2.158-2.768-4.076-3.858-5.797 1.874-.415 2.877-1.591 2.877-3.183 0-1.874-1.068-2.79-3.226-2.79-.915 0-1.678.066-2.288.066-.153 0-.392-.022-.654-.043.065 1.525.109 3.487.109 5.862 0 2.223-.022 4.163-.109 5.863zM107.406 53.227c-3.29 0-5.296-2.354-5.296-6.08 0-3.706 2.093-6.103 5.296-6.103 3.27 0 5.275 2.375 5.275 6.102 0 3.618-2.093 6.08-5.275 6.08zm0-.654c2.463 0 3.858-1.918 3.858-5.449 0-3.552-1.351-5.448-3.858-5.448-2.44 0-3.857 1.983-3.857 5.514 0 3.465 1.373 5.383 3.857 5.383zM115.558 52.987c.196-.043.392-.087.588-.087.175 0 .349.044.523.087.022-1.59.218-4.446.698-8.543l2.245 4.947c.61 1.351 1.111 2.528 1.35 3.596h.197c.392-1.351 1.547-4.293 3.683-8.565.175 1.111.458 3.945.741 8.565.218-.043.436-.087.654-.087.218 0 .436.044.654.087-.436-4.337-.806-8.325-1.133-11.943h-.175a522.47 522.47 0 0 1-4.25 9.328c-1.33-2.943-2.659-6.06-4.032-9.328h-.24c-.632 5.753-1.09 9.764-1.503 11.943z"/>
        </g>
    </g>
</svg>
