
<svg xmlns="http://www.w3.org/2000/svg" width="152" height="94" viewBox="0 0 152 94">
    <defs>
        <linearGradient id="a" x1="11.364%" x2="90.003%" y1="0%" y2="105.251%">
            <stop offset="0%" stop-color="#3C3C3C"/>
            <stop offset="100%" stop-color="#171717"/>
        </linearGradient>
    </defs>
    <g fill="none" fill-rule="evenodd">
        <path fill="url(#a)" d="M4 0h144a4 4 0 0 1 4 4v86a4 4 0 0 1-4 4H4a4 4 0 0 1-4-4V4a4 4 0 0 1 4-4z"/>
        <path fill="#FFF" fill-rule="nonzero" d="M87.997 46.986h-4.805v-3.688h-1.454v9.365h1.454v-4.437h4.805v4.437h1.438v-9.365h-1.438v3.688zM73.82 43.268c-.528-.016-1.6-.016-2.548-.016v9.404h1.469V49.09c.367 0 1.125-.03 1.737-.046.857-.015 3.09-.443 3.075-3.022.023-2.907-3.198-2.754-3.733-2.754zm-.077 4.575h-.972v-3.39h.827c.382 0 2.64-.168 2.708 1.584.092 1.722-1.69 1.806-2.563 1.806zm-13.48-4.59l.014 9.403h5.9V51.43h-4.43v-3.19h3.136c0-.268-.015-.658 0-1.17h-3.137v-2.564h4.43c-.015-.742 0-1.255 0-1.255h-5.914zm-8.578 2.295c0-1.538 2.035-1.6 3.237-.612l.443-1.27c-3.504-1.684-5.103.543-5.103 1.966 0 3.405 4.828 2.678 4.132 5.073-.245.872-1.798 1.37-3.589.283-.13.367-.344.81-.558 1.254 2.364 1.24 5.432.643 5.532-1.912.137-3.214-4.094-2.984-4.094-4.782zm62.004.344c-.214-2.793-2.923-2.578-3.52-2.609a97.47 97.47 0 0 0-2.463-.03v9.387h1.469v-3.948c.497 0 .658 0 1.408-.03l2.678 3.978h1.782l-2.96-4.223c.795-.29 1.72-.972 1.606-2.525zm-3.604 1.699c-.329 0-.581 0-.91-.016V44.4h.773c.367 0 2.295-.115 2.463 1.423.207 1.821-1.928 1.768-2.326 1.768zm13.298-4.323h-1.699l-3.075 9.403h1.453c.46-1.699.612-2.18.612-2.18l3.803-.016c.444 1.255.773 2.211.773 2.211h1.507l-3.374-9.418zm-2.372 6.144l1.484-4.645h.016l1.553 4.63-3.053.015zM98.555 43c-2.991 0-4.942 2.211-4.942 4.958 0 2.747 1.95 4.958 4.942 4.958s4.943-2.211 4.943-4.958c0-2.747-1.951-4.958-4.943-4.958zm0 8.561c-2.196 0-3.435-1.599-3.435-3.603 0-1.982 1.24-3.604 3.435-3.604 2.18 0 3.436 1.6 3.436 3.604 0 1.981-1.24 3.603-3.436 3.603z"/>
        <path fill="#636363" d="M33.151 0c-9.437 20.237-12.294 37.502-8.571 51.795 5.584 21.44 4.024 37.279 1.027 42.205 1.686-1.357 16.262-20.708 9.59-46.035C30.75 31.08 30.067 15.092 33.151 0z"/>
    </g>
</svg>
