<svg xmlns="http://www.w3.org/2000/svg" width="152" height="94" viewBox="0 0 152 94">
    <defs>
        <linearGradient id="a" x1="11.364%" x2="90.003%" y1="0%" y2="105.251%">
            <stop offset="0%" stop-color="#4598EB"/>
            <stop offset="100%" stop-color="#1A75CF"/>
        </linearGradient>
    </defs>
    <g fill="none" fill-rule="evenodd">
        <path fill="url(#a)" d="M4 0h144a4 4 0 0 1 4 4v86a4 4 0 0 1-4 4H4a4 4 0 0 1-4-4V4a4 4 0 0 1 4-4z"/>
        <g fill-rule="nonzero">
            <path fill="#FDBB30" d="M117.584 42.745c.598 0 1.096-.32 1.163-.724l.597-6.785c0-.674-.78-1.23-1.743-1.23-.98 0-1.743.556-1.743 1.23l.597 6.785c.05.404.532.724 1.13.724M113.965 44.866c.299-.522.282-1.11-.033-1.38l-5.495-3.906c-.565-.337-1.428.067-1.91.926-.481.858-.398 1.818.166 2.138l6.093 2.879c.366.135.88-.135 1.18-.657M121.204 44.866c.298.522.813.808 1.195.657l6.093-2.88c.581-.336.664-1.296.166-2.137-.481-.859-1.345-1.263-1.926-.926l-5.495 3.906c-.299.27-.332.858-.033 1.38M117.584 51.23c.598 0 1.096.32 1.163.725l.597 6.785c0 .673-.78 1.229-1.743 1.229-.98 0-1.743-.556-1.743-1.23l.597-6.784c.05-.421.532-.724 1.13-.724M121.204 49.11c.298-.523.813-.809 1.195-.657l6.093 2.879c.581.336.664 1.296.166 2.155-.481.858-1.345 1.262-1.926.926l-5.495-3.906c-.299-.287-.332-.876-.033-1.398M113.965 49.11c.299.521.282 1.11-.033 1.38l-5.495 3.906c-.565.337-1.428-.068-1.91-.926-.481-.859-.398-1.819.166-2.155l6.077-2.862c.382-.152.896.117 1.195.656"/>
            <path fill="#FFF" d="M82.886 50.473c0 .202-.017.42-.066.606-.233.791-1.03 1.448-2.043 1.448-.83 0-1.494-.488-1.494-1.498 0-1.55 1.694-1.987 3.603-1.97v1.414zm3.005-2.71c0-2.56-1.08-4.816-4.732-4.816-1.876 0-3.353.539-4.167 1.01l.598 2.054c.747-.471 1.926-.875 3.038-.875 1.843 0 2.158 1.06 2.158 1.75v.17c-4.034 0-6.59 1.413-6.59 4.292 0 1.768 1.294 3.418 3.552 3.418 1.395 0 2.557-.555 3.238-1.465h.066s.465 1.953 3.005 1.213c-.133-.808-.183-1.684-.183-2.728l.017-4.024zM23.019 39.445s2.64 10.96 3.055 12.728c.498 2.071 1.377 2.846 3.934 2.324l1.644-6.785c.415-1.684.697-2.896.963-4.614h.05c.182 1.735.464 2.93.796 4.614l1.013 4.697c.349 1.616 1.295 2.643 3.802 2.088l3.918-15.052h-3.17l-1.346 6.516c-.365 1.902-.68 3.384-.946 5.101h-.05c-.232-1.717-.514-3.131-.88-4.983l-1.394-6.634h-3.304L29.61 45.91c-.415 1.97-.814 3.553-1.063 5.22h-.05c-.265-1.583-.597-3.57-.98-5.472 0 0-.879-4.63-1.194-6.213h-3.304M48.188 50.473c0 .202-.017.42-.083.606-.233.791-1.03 1.448-2.043 1.448-.83 0-1.494-.488-1.494-1.498 0-1.55 1.694-1.987 3.603-1.97l.017 1.414zm3.021-2.71c0-2.56-1.079-4.816-4.731-4.816-1.877 0-3.354.539-4.168 1.01l.598 2.054c.747-.471 1.926-.875 3.038-.875 1.86 0 2.159 1.06 2.159 1.75v.17c-4.035 0-6.592 1.413-6.592 4.292 0 1.768 1.295 3.418 3.553 3.418 1.395 0 2.557-.555 3.254-1.465h.067s.465 1.953 3.005 1.213c-.133-.808-.183-1.684-.183-2.728v-4.024zM56.24 51.315v-11.87h-3.022v15.052h3.022v-3.182M95.686 39.445v11.112c0 1.532.282 2.61.897 3.266.531.573 1.41.943 2.457.943.896 0 1.776-.168 2.175-.336l-.034-2.391a4.282 4.282 0 0 1-1.145.134c-1.03 0-1.378-.673-1.378-2.037v-4.243h2.623v-2.879h-2.623v-3.552h-2.972M87.9 43.2v11.314h3.104v-5.792c0-.32.017-.59.067-.842.232-1.212 1.145-1.987 2.457-1.987.365 0 .614.034.896.085v-2.964a2.83 2.83 0 0 0-.68-.067c-1.162 0-2.474.758-3.038 2.39h-.083V43.2H87.9M58.348 43.2v11.314h3.038V47.88c0-.303.033-.64.15-.926.249-.673.863-1.448 1.842-1.448 1.229 0 1.794 1.044 1.794 2.56v6.448h3.021v-6.718c0-.303.033-.657.133-.91.249-.757.913-1.38 1.826-1.38 1.245 0 1.843 1.027 1.843 2.812v6.196h3.038v-6.668c0-3.518-1.76-4.9-3.752-4.9-.88 0-1.577.22-2.208.607-.531.337-.996.791-1.411 1.414h-.05c-.481-1.212-1.61-2.02-3.071-2.02-1.893 0-2.74.976-3.254 1.785h-.05v-1.533h-2.889"/>
        </g>
    </g>
</svg>